<svg width="110" height="43" viewBox="0 0 110 43" fill="none" xmlns="http://www.w3.org/2000/svg">
<g clipPath="url(#clip0_220_1817)">
<path d="M16.0278 33.619C16.8387 32.4762 17.6496 31.3333 18.4605 30.2381C19.7008 28.619 20.9887 27.0952 22.3721 25.5714L21.6088 14.5714H14.7398L8.01388 28.4286L7.48916 14.5714H0L1.95577 42.7143H8.01388L15.5984 27.0952L16.0278 33.5714V33.619Z" fill="#1D1D1D"/>
<path d="M16.9341 38.4762C16.9341 38.4762 16.6002 38.8572 16.4094 39.0476L16.6479 42.7143H22.7537L31.1492 25.381C30.0521 26.1905 29.0504 27 28.0486 27.7619C23.1354 31.7619 19.2715 35.8096 16.8864 38.4762H16.9341Z" fill="#1D1D1D"/>
<path d="M35.1084 14.5714H28.8595L25.2341 22.619C25.8066 22.0476 26.4267 21.4762 26.9991 20.9524C29.5273 18.6667 32.2463 16.5238 35.1084 14.619V14.5714Z" fill="#1D1D1D"/>
<path d="M35.8716 22.1429L31.5785 42.7143H38.7337L43.9332 17.6667C41.0234 19 38.3044 20.5238 35.8239 22.1429H35.8716Z" fill="#1D1D1D"/>
<path d="M61.8691 14.1429L58.7685 29.0952L52.1379 14.5714C49.8006 15.2381 47.5109 16.0952 45.3643 17.0476L40.0217 42.7143H47.0339L50.0391 28.1905L56.6696 42.7143H63.0139L68.7858 14.8095L65.876 12.7143L61.9168 14.1429H61.8691Z" fill="#1D1D1D"/>
<path d="M60.4857 11.7619L61.4875 8.57142L58.9593 5.28571C48.2741 7.80952 25.3296 16.1905 11.9731 42.7143C11.9731 42.7143 32.1509 14.7619 60.4857 11.7619Z" fill="#1D1D1D"/>
<path d="M74.1761 6.28571L69.2628 4.85714L67.641 0L64.7789 4.2381L59.6271 4.28571L62.7754 8.33333L61.2012 13.1905L66.0191 11.4762L70.2168 14.4762L70.0737 9.33333L74.1761 6.28571Z" fill="#E71F20"/>
<path d="M76.9428 14.5238L72.1726 37.2381H85.6722L84.5751 42.381H64.922L70.7416 14.4762H76.9428V14.5238Z" fill="#1D1D1D" stroke="#1D1D1D" stroke-width="0.25" stroke-miterlimit="10"/>
<path d="M82.3331 14.5238H88.6297L92.8275 26.3809L101.509 14.5238H108.76L95.1172 31.8571L92.9706 42.3809H86.7694L89.0114 31.5714L82.3331 14.5238Z" fill="#1D1D1D" stroke="#1D1D1D" stroke-width="0.25" stroke-miterlimit="10"/>
</g>
<defs>
<clipPath id="clip0_220_1817">
<rect width="110" height="43" fill="white"/>
</clipPath>
</defs>
</svg>
