<svg width="34" height="34" viewBox="0 0 34 34" fill="none" xmlns="http://www.w3.org/2000/svg">
<g clipPath="url(#clip0_422_6207)">
<path d="M24.7724 11.0624C24.9446 10.9629 25.0703 10.7991 25.1218 10.607C25.1733 10.4148 25.1463 10.2101 25.0469 10.0378L23.1719 6.79025C22.973 6.44572 22.6453 6.19432 22.2611 6.09136C21.8768 5.9884 21.4674 6.0423 21.1228 6.24121L5.53439 15.2412C5.18986 15.4401 4.93847 15.7678 4.8355 16.152C4.73254 16.5363 4.78644 16.9457 4.98535 17.2902L6.86035 20.5378C6.95981 20.7101 7.12362 20.8358 7.31576 20.8873C7.50789 20.9388 7.71261 20.9118 7.88487 20.8124C8.2294 20.6135 8.63883 20.5595 9.0231 20.6625C9.40737 20.7655 9.735 21.0169 9.93391 21.3614C10.1328 21.7059 10.1867 22.1154 10.0838 22.4996C9.98079 22.8839 9.7294 23.2115 9.38487 23.4104C9.21261 23.5099 9.08691 23.6737 9.03543 23.8658C8.98394 24.058 9.0109 24.2627 9.11035 24.435L10.9854 27.6826C11.1843 28.0271 11.5119 28.2785 11.8962 28.3814C12.2804 28.4844 12.6899 28.4305 13.0344 28.2316L28.6228 19.2316C28.9674 19.0327 29.2188 18.7051 29.3217 18.3208C29.4247 17.9365 29.3708 17.5271 29.1719 17.1826L27.2969 13.935C27.1974 13.7627 27.0336 13.637 26.8415 13.5855C26.6493 13.534 26.4446 13.561 26.2724 13.6604C25.9278 13.8594 25.5184 13.9133 25.1341 13.8103C24.7499 13.7073 24.4222 13.4559 24.2233 13.1114C24.0244 12.7669 23.9705 12.3574 24.0735 11.9732C24.1764 11.5889 24.4278 11.2613 24.7724 11.0624ZM26.3241 15.25L27.8728 17.9326L23.3262 20.5576L22.2012 18.609L20.9022 19.359L22.0272 21.3076L12.2844 26.9326L10.7356 24.25C11.2077 23.7837 11.5119 23.1741 11.6005 22.5164C11.6892 21.8588 11.5573 21.1904 11.2255 20.6157C10.8937 20.041 10.3808 19.5926 9.76693 19.3406C9.1531 19.0885 8.47302 19.0471 7.83314 19.2228L6.28439 16.5402L16.0272 10.9152L17.1522 12.8638L18.4512 12.1138L17.3262 10.1652L21.8728 7.54025L23.4216 10.2228C22.9495 10.6891 22.6453 11.2988 22.5567 11.9564C22.4681 12.614 22.6 13.2824 22.9317 13.8571C23.2635 14.4318 23.7765 14.8802 24.3903 15.1323C25.0041 15.3843 25.6842 15.4257 26.3241 15.25Z" fill="white"/>
<path d="M17.9019 14.1621L19.2009 13.4121L21.4509 17.3092L20.1519 18.0592L17.9019 14.1621Z" fill="white"/>
</g>
<defs>
<clipPath id="clip0_422_6207">
<rect width="24" height="24" fill="white" transform="translate(0.686035 12.8438) rotate(-30)"/>
</clipPath>
</defs>
</svg>
