<svg width="25" height="25" viewBox="0 0 25 25" fill="none" xmlns="http://www.w3.org/2000/svg">
<path d="M18.3462 16.1571C17.5862 16.1571 16.9062 16.4571 16.3862 16.9271L9.25619 12.7771C9.30619 12.5471 9.34619 12.3171 9.34619 12.0771C9.34619 11.8371 9.30619 11.6071 9.25619 11.3771L16.3062 7.26715C16.8462 7.76715 17.5562 8.07715 18.3462 8.07715C20.0062 8.07715 21.3462 6.73715 21.3462 5.07715C21.3462 3.41715 20.0062 2.07715 18.3462 2.07715C16.6862 2.07715 15.3462 3.41715 15.3462 5.07715C15.3462 5.31715 15.3862 5.54715 15.4362 5.77715L8.38619 9.88715C7.84619 9.38715 7.13619 9.07715 6.34619 9.07715C4.68619 9.07715 3.34619 10.4171 3.34619 12.0771C3.34619 13.7371 4.68619 15.0771 6.34619 15.0771C7.13619 15.0771 7.84619 14.7671 8.38619 14.2671L15.5062 18.4271C15.4562 18.6371 15.4262 18.8571 15.4262 19.0771C15.4262 20.6871 16.7362 21.9971 18.3462 21.9971C19.9562 21.9971 21.2662 20.6871 21.2662 19.0771C21.2662 17.4671 19.9562 16.1571 18.3462 16.1571Z" fill="#D1D1D1"/>
</svg>
