<svg width="20" height="20" viewBox="0 0 20 20" fill="none" xmlns="http://www.w3.org/2000/svg">
<path fillRule="evenodd" clipRule="evenodd" d="M10 1.39535C7.7179 1.39535 5.52928 2.30191 3.91559 3.91559C2.30191 5.52928 1.39535 7.7179 1.39535 10C1.39535 12.2821 2.30191 14.4707 3.91559 16.0844C5.52928 17.6981 7.7179 18.6047 10 18.6047C12.2821 18.6047 14.4707 17.6981 16.0844 16.0844C17.6981 14.4707 18.6047 12.2821 18.6047 10C18.6047 7.7179 17.6981 5.52928 16.0844 3.91559C14.4707 2.30191 12.2821 1.39535 10 1.39535ZM0 10C0 4.47721 4.47721 0 10 0C15.5228 0 20 4.47721 20 10C20 15.5228 15.5228 20 10 20C4.47721 20 0 15.5228 0 10ZM10 5.5814C10.185 5.5814 10.3625 5.6549 10.4933 5.78574C10.6242 5.91658 10.6977 6.09404 10.6977 6.27907V9.71163L12.8186 11.8326C12.8872 11.8964 12.9421 11.9735 12.9803 12.059C13.0184 12.1446 13.0389 12.237 13.0406 12.3307C13.0422 12.4244 13.025 12.5174 12.9899 12.6043C12.9548 12.6912 12.9026 12.7701 12.8363 12.8363C12.7701 12.9026 12.6912 12.9548 12.6043 12.9899C12.5174 13.025 12.4244 13.0422 12.3307 13.0406C12.237 13.0389 12.1446 13.0184 12.059 12.9803C11.9735 12.9421 11.8964 12.8872 11.8326 12.8186L9.50698 10.493C9.3761 10.3623 9.30249 10.185 9.30233 10V6.27907C9.30233 6.09404 9.37583 5.91658 9.50667 5.78574C9.63751 5.6549 9.81497 5.5814 10 5.5814Z" fill="white"/>
</svg>
