<svg width="24" height="24" viewBox="0 0 24 24" fill="none" xmlns="http://www.w3.org/2000/svg">
<path d="M12.09 17.5586L12 17.6458L11.901 17.5586C7.626 13.8005 4.8 11.3155 4.8 8.79564C4.8 7.05177 6.15 5.74387 7.95 5.74387C9.336 5.74387 10.686 6.6158 11.163 7.80164H12.837C13.314 6.6158 14.664 5.74387 16.05 5.74387C17.85 5.74387 19.2 7.05177 19.2 8.79564C19.2 11.3155 16.374 13.8005 12.09 17.5586ZM16.05 4C14.484 4 12.981 4.70627 12 5.81362C11.019 4.70627 9.516 4 7.95 4C5.178 4 3 6.10136 3 8.79564C3 12.0828 6.06 14.7771 10.695 18.849L12 20L13.305 18.849C17.94 14.7771 21 12.0828 21 8.79564C21 6.10136 18.822 4 16.05 4Z" fill="#B6B4BA"/>
</svg>
